<svg width="800" height="520" viewBox="0 0 800 520" fill="none" xmlns="http://www.w3.org/2000/svg">
  <rect width="800" height="520" rx="40" fill="#FAF0EC"/>
  <ellipse cx="407" cy="390" rx="230" ry="48" fill="#EEDDD3"/>
  <rect x="235" y="180" width="340" height="168" rx="38" fill="#FFF9F6"/>
  <path d="M255 235C255 210.147 275.147 190 300 190H510C534.853 190 555 210.147 555 235V260H255V235Z" fill="#F6D6D7"/>
  <path d="M270 260H540V320C540 334.359 528.359 346 514 346H296C281.641 346 270 334.359 270 320V260Z" fill="#FFF5F3"/>
  <circle cx="328" cy="220" r="18" fill="#E58C98"/>
  <circle cx="405" cy="214" r="18" fill="#E58C98"/>
  <circle cx="480" cy="220" r="18" fill="#E58C98"/>
  <rect x="320" y="112" width="170" height="56" rx="28" fill="#FFF8F2"/>
  <rect x="345" y="126" width="120" height="12" rx="6" fill="#E6D1C2"/>
  <rect x="355" y="146" width="100" height="8" rx="4" fill="#EBDCD1"/>
</svg>
